 http://host.presenze.com/immagini/082010/20100817113824encoded-by-ivosorojpg.jpg

The Thin Red Line (La Sottile Linea Rossa) 1998 ITALIAN (Eng-sub) {DivX} - LKRG

In World War II, the outcome of the battle of Guadalcanal will strongly influence the Japanese's advance into the pacific. A group of young soldiers is brought in as a relief for the battle-weary Marine units. The exhausting fight for a key-positioned airfield that allows control over a 1000-mile radius puts the men of the Army Rifle company C-for-Charlie through hell. The horrors of war forms the soldiers into a tight-knit group, their emotions develop into bonds of love and even family. The reasons for this war get further away as the world for the men gets smaller and smaller until their fighting is for mere survival and the life of the other men with them.
Director: Terrence Malick
CASTING

Kirk Acevedo ... Pvt. Tella
Sean Penn ... 1st Sgt. Welsh
Penelope Allen ... Witt's Mother (as Penny Allen)
Adrien Brody ... Cpl. Fife
James Caviezel ... Pvt. Witt (as Jim Caviezel)
Benjamin Green ... Melanesian Villager (as Benjamin)
Simon Billig ... Lt. Col. Billig
Ben Chaplin ... Pvt. Bell
Mark Boone Junior ... Pvt. Peale
George Clooney ... Capt. Bosche
John Cusack ... Capt. Gaff
Norman Patrick Brown ... Pvt. Henry
Woody Harrelson ... Sgt. Keck
Elias Koteas ... Capt. Staros
Nick Nolte ... Lt. Col. Tall
 
http://host.presenze.com/immagini/082010/20100818025801the-thin-red-line-1jpg.jpg

 
http://host.presenze.com/immagini/082010/20100818030729the-thin-red-line-2jpg.jpg 
http://host.presenze.com/immagini/082010/20100818030848the-thin-red-line-3jpg.jpg

Cast: Kirk Acevedo, Sean Penn, Adrien Brody, James Caviezel, Benjamin Green, Simon Billig, Ben Chaplin, Mark Boone Junior, George Clooney, John Cusack, Woody Harrelson, Elias Koteas, Nick Nolte.
Genre: Action | Drama | War
Language: Italian
Year : 1998
Duration : 2h 43mn
Video Bit rate : 851 Kbps
Width : 640 pixels
Height : 264 pixels
Display aspect ratio : 2.40:1
Opinion : stard.gifstard.gifstard.gifstard.gifstard.gif
Codec : DivX

screenshots 
http://host.presenze.com/immagini/082010/20100818031518the-thin-red-line-screenshotjpg.jpg 
http://host.presenze.com/immagini/082010/20100818031518the-thin-red-line-screenshotjpg.jpg 
http://host.presenze.com/immagini/082010/20100818031518the-thin-red-line-screenshotjpg.jpg 
http://host.presenze.com/immagini/082010/20100818031518the-thin-red-line-screenshotjpg.jpg 
http://host.presenze.com/immagini/082010/20100818031518the-thin-red-line-screenshotjpg.jpg

General Complete name : The Thin Red Line 1998 - ITALIAN (La Sottile Linea Rossa).divx Format : AVI Format/Info : Audio Video Interleave File size : 1.13 GiB Duration : 2h 43mn Overall bit rate : 989 Kbps Video ID : 0 Format : MPEG-4 Visual Format settings, BVOP : No Format settings, QPel : No Format settings, GMC : No warppoints Format settings, Matrix : Default (H.263) Codec ID : DX50 Codec ID/Hint : DivX 5 Duration : 2h 43mn Bit rate : 851 Kbps Width : 640 pixels Height : 264 pixels Display aspect ratio : 2.40:1 Frame rate : 25.000 fps Resolution : 8 bits Colorimetry : 4:2:0 Scan type : Progressive Bits/(Pixel*Frame) : 0.201 Stream size : 996 MiB (86%) Title : Video Writing library : DivX 6.8.5 (UTC 2009-08-20) Audio ID : 1 Format : MPEG Audio Format version : Version 1 Format profile : Layer 3 Mode : Joint stereo Format_Settings_ModeExtension : MS Stereo Codec ID : 55 Codec ID/Hint : MP3 Duration : 2h 43mn Bit rate mode : Constant Bit rate : 128 Kbps Channel(s) : 2 channels Sampling rate : 44.1 KHz Stream size : 150 MiB (13%) Alignment : Split accross interleaves Interleave, duration : 40 ms (1.00 video frame) Interleave, preload duration : 500 ms Title : Audio

